# xmcd
#
# Track frame offsets: 
#        150
#        12623
#        30704
#        42323
#        51282
#        71495
#        87157
#        111596
#        128163
#        142789
#        149504
#        166842
#        188392
#        202682
#        228394
#        233653
#        248716
#
# Disc length: 3427 seconds
#
# Revision: 0
# Processed by: cddbd v1.4PL0 Copyright (c) Steve Scherf et al.
# Submitted via: ExactAudioCopy v0.90b3
#
DISCID=e10d6111
DTITLE=Nighthawks as the Diner - Transit Cellophane
DYEAR=2002
DGENRE=Blues
TTITLE0=Like I don't know you anymore
TTITLE1=Please crack a smile for me baby
TTITLE2=Junie needs a new pair of shoes
TTITLE3=The waltzes, the polkas and the sad songs
TTITLE4=No new messages
TTITLE5=If we get back home
TTITLE6=I'm a stranger here myself
TTITLE7=The blue light
TTITLE8=Observant spectator
TTITLE9=Cross-eyed waltz
TTITLE10=Forbidden fruit
TTITLE11=Her royal highness
TTITLE12=Paul Gilson 9r (third visit)
TTITLE13=Shame rhymes with pride
TTITLE14=Transit
TTITLE15=Cellophane
TTITLE16=The hotel
EXTD=
EXTT0=
EXTT1=
EXTT2=
EXTT3=
EXTT4=
EXTT5=
EXTT6=
EXTT7=
EXTT8=
EXTT9=
EXTT10=
EXTT11=
EXTT12=
EXTT13=
EXTT14=
EXTT15=
EXTT16=
PLAYORDER=
